<?xml version="1.0" encoding="UTF-8"?>
<svg id="Laag_1" data-name="Laag 1" xmlns="http://www.w3.org/2000/svg" viewBox="0 0 74.81 123.11">
  <defs>
    <style>
      .cls-1 {
        fill: #fff;
        stroke-width: 0px;
      }
    </style>
  </defs>
  <path class="cls-1" d="m72.61,90.99l-29.9,29.92c-2.92,2.93-7.65,2.94-10.58.02,0,0-.01-.01-.02-.02L2.21,90.99c-2.93-2.91-2.94-7.64-.04-10.56,1.4-1.41,3.31-2.21,5.31-2.21,1.99-.01,3.9.78,5.3,2.2l17.21,17.21V7.42c0-4.1,3.32-7.42,7.42-7.42s7.42,3.32,7.42,7.42v90.21l17.21-17.21c1.4-1.42,3.31-2.21,5.3-2.2,4.13,0,7.47,3.34,7.48,7.46,0,1.99-.79,3.9-2.21,5.31Z"/>
</svg>