<?xml version="1.0" encoding="utf-8"?>
<!-- Generator: Adobe Illustrator 27.9.0, SVG Export Plug-In . SVG Version: 6.00 Build 0)  -->
<svg version="1.1" xmlns="http://www.w3.org/2000/svg" xmlns:xlink="http://www.w3.org/1999/xlink" x="0px" y="0px"
	 viewBox="0 0 566.9 566.9" style="enable-background:new 0 0 566.9 566.9;" xml:space="preserve">
<style type="text/css">
	.st0{font-family:'Apple-Chancery';}
	.st1{font-size:27.4992px;}
	.st2{fill:#FF0052;}
	.st3{clip-path:url(#SVGID_00000092430926360441238350000013425265047274158473_);}
	.st4{font-size:73.4713px;}
	.st5{font-size:61.6547px;}
	.st6{fill:none;stroke:#FFF82E;stroke-width:5.0532;stroke-miterlimit:10;}
	.st7{fill:#FFF82E;stroke:#FFF82E;stroke-width:5.0532;stroke-miterlimit:10;}
	.st8{clip-path:url(#SVGID_00000177474976997119892990000017512262766158687160_);}
	.st9{clip-path:url(#SVGID_00000111912712839938664180000007032522916101006763_);}
</style>
<g id="Laag_11">
	<text transform="matrix(1 0 0 1 314.6582 86.0125)" class="st0 st1">the</text>
</g>
<g id="Laag_7">
	<path class="st2" d="M341.2,294.9c-13.5-33.8,4.3-59.8-11.2-71.5c-19.8-14.9-52.5,24.4-102.8,13.7c-7.9-1.7-35.7-8.8-51-32.9
		c-20.9-32.8-9.4-82.3,19.7-108.1c25-22.2,56.6-21.1,78.7-20.4c11.6,0.4,83.2,2.9,106.8,46.6c25.3,46.8-23.6,104.8-1.6,123.7"/>
	<path class="st2" d="M1122.6,213.8"/>
</g>
<g id="Laag_3">
	<g id="Laag_4">
		<g id="Astronaut.psd_00000064339284073350508930000008816888746141112251_">
			<defs>
				
					<rect id="SVGID_1_" x="278.6" y="130.8" transform="matrix(0.977 -0.2133 0.2133 0.977 -35.9214 86.7692)" width="210.8" height="158.1"/>
			</defs>
			<clipPath id="SVGID_00000116954256560272957210000017763105371698088582_">
				<use xlink:href="#SVGID_1_"  style="overflow:visible;"/>
			</clipPath>
			
				<g transform="matrix(1 1.490116e-08 -1.490116e-08 1 0 0)" style="clip-path:url(#SVGID_00000116954256560272957210000017763105371698088582_);">
				
					<image style="overflow:visible;" width="705" height="1399" id="Laag_0" xlink:href="567FE00FC74F9518.png"  transform="matrix(8.582945e-02 -1.874267e-02 1.874267e-02 8.582945e-02 349.5395 162.0579)">
				</image>
			</g>
		</g>
	</g>
	<g id="Laag_9">
	</g>
</g>
<g id="Laag_2">
	<g id="Laag_8">
		<path class="st2" d="M379.4,245.6c19.9,17.1,65.3-26.2,89.2-8.8c25.1,18.3,19.9,99-21.7,118.1c-37,17-90.3-20.8-106-60.2"/>
	</g>
	<g id="Laag_1">
		<g>
			<defs>
				<rect id="SVGID_00000167364706068193083140000013313674311557067682_" x="0" width="566.9" height="566.9"/>
			</defs>
			<clipPath id="SVGID_00000001656745225507217290000008746576254194271405_">
				<use xlink:href="#SVGID_00000167364706068193083140000013313674311557067682_"  style="overflow:visible;"/>
			</clipPath>
			
				<g id="moon.psd_00000060020313160534465950000004545647575669497491_" style="clip-path:url(#SVGID_00000001656745225507217290000008746576254194271405_);">
				<defs>
					
						<rect id="SVGID_00000046305370004861046320000014980584472569728434_" x="-1.2" y="117.1" transform="matrix(1 -7.278333e-03 7.278333e-03 1 -2.9345 2.0911)" width="574.2" height="574.2"/>
				</defs>
				<clipPath id="SVGID_00000043438265518116301720000010180082736301934241_">
					<use xlink:href="#SVGID_00000046305370004861046320000014980584472569728434_"  style="overflow:visible;"/>
				</clipPath>
				<g style="clip-path:url(#SVGID_00000043438265518116301720000010180082736301934241_);">
					
						<image style="overflow:visible;" width="1000" height="736" id="Laag_0_00000088855162713245005620000010159059122278737024_" xlink:href="567FE00FC74F9519.png"  transform="matrix(0.5742 -4.179006e-03 4.179006e-03 0.5742 -2.2267 270.8125)">
					</image>
				</g>
			</g>
		</g>
	</g>
</g>
<g id="Laag_5">
	<g id="Laag_10">
		<text transform="matrix(1.0201 0 0 1 63.1309 71.9131)" class="st0 st4">Explore</text>
		<text transform="matrix(1 0 0 1 356.8018 130.5262)" class="st0 st5">Earth</text>
	</g>
	<line class="st6" x1="72" y1="0" x2="72" y2="566.9"/>
	<polygon class="st7" points="77,19.5 72,31.3 67,19.5 72,7.7 	"/>
	<polygon class="st7" points="77,52.6 72,64.4 67,52.6 72,40.8 	"/>
	<polygon class="st7" points="77,85.7 72,97.5 67,85.7 72,73.8 	"/>
	<polygon class="st7" points="77,118.7 72,130.5 67,118.7 72,106.9 	"/>
	<polygon class="st7" points="77,151.8 72,163.6 67,151.8 72,140 	"/>
	<polygon class="st7" points="77,184.8 72,196.7 67,184.8 72,173 	"/>
	<polygon class="st7" points="77,217.9 72,229.7 67,217.9 72,206.1 	"/>
	<polygon class="st7" points="77,251 72,262.8 67,251 72,239.2 	"/>
	<polygon class="st7" points="77,284 72,295.8 67,284 72,272.2 	"/>
	<polygon class="st7" points="77,317.1 72,328.9 67,317.1 72,305.3 	"/>
	<polygon class="st7" points="77,350.2 72,362 67,350.2 72,338.3 	"/>
	<polygon class="st7" points="77,383.2 72,395 67,383.2 72,371.4 	"/>
	<polygon class="st7" points="77,416.3 72,428.1 67,416.3 72,404.5 	"/>
	<polygon class="st7" points="77,449.3 72,461.2 67,449.3 72,437.5 	"/>
	<polygon class="st7" points="77,482.4 72,494.2 67,482.4 72,470.6 	"/>
	<polygon class="st7" points="77,515.5 72,527.3 67,515.5 72,503.7 	"/>
	<polygon class="st7" points="77,548.5 72,560.3 67,548.5 72,536.7 	"/>
	<line class="st6" x1="503.9" y1="0" x2="503.9" y2="566.9"/>
	<polygon class="st7" points="508.9,19.5 503.9,31.3 498.9,19.5 503.9,7.7 	"/>
	<polygon class="st7" points="508.9,52.6 503.9,64.4 498.9,52.6 503.9,40.8 	"/>
	<polygon class="st7" points="508.9,85.7 503.9,97.5 498.9,85.7 503.9,73.8 	"/>
	<polygon class="st7" points="508.9,118.7 503.9,130.5 498.9,118.7 503.9,106.9 	"/>
	<polygon class="st7" points="508.9,151.8 503.9,163.6 498.9,151.8 503.9,140 	"/>
	<polygon class="st7" points="508.9,184.8 503.9,196.7 498.9,184.8 503.9,173 	"/>
	<polygon class="st7" points="508.9,217.9 503.9,229.7 498.9,217.9 503.9,206.1 	"/>
	<polygon class="st7" points="508.9,251 503.9,262.8 498.9,251 503.9,239.2 	"/>
	<polygon class="st7" points="508.9,284 503.9,295.8 498.9,284 503.9,272.2 	"/>
	<polygon class="st7" points="508.9,317.1 503.9,328.9 498.9,317.1 503.9,305.3 	"/>
	<polygon class="st7" points="508.9,350.2 503.9,362 498.9,350.2 503.9,338.3 	"/>
	<polygon class="st7" points="508.9,383.2 503.9,395 498.9,383.2 503.9,371.4 	"/>
	<polygon class="st7" points="508.9,416.3 503.9,428.1 498.9,416.3 503.9,404.5 	"/>
	<polygon class="st7" points="508.9,449.3 503.9,461.2 498.9,449.3 503.9,437.5 	"/>
	<polygon class="st7" points="508.9,482.4 503.9,494.2 498.9,482.4 503.9,470.6 	"/>
	<polygon class="st7" points="508.9,515.5 503.9,527.3 498.9,515.5 503.9,503.7 	"/>
	<polygon class="st7" points="508.9,548.5 503.9,560.3 498.9,548.5 503.9,536.7 	"/>
</g>
<g id="Laag_6">
	<g>
		<defs>
			<rect id="SVGID_00000165948372695867659140000003514470113838140051_" x="0.3" y="26.5" width="566.4" height="566.2"/>
		</defs>
		<clipPath id="SVGID_00000025431352996735019180000013258361599946986112_">
			<use xlink:href="#SVGID_00000165948372695867659140000003514470113838140051_"  style="overflow:visible;"/>
		</clipPath>
		
			<g id="tiger.psd_00000119827181214978280970000002863352833070703010_" style="clip-path:url(#SVGID_00000025431352996735019180000013258361599946986112_);">
			<defs>
				
					<rect id="SVGID_00000002380233898475039930000007618776993054635926_" x="-3.3" y="228.7" transform="matrix(0.9992 -3.944912e-02 3.944912e-02 0.9992 -14.6233 13.0846)" width="655" height="296.8"/>
			</defs>
			<clipPath id="SVGID_00000163052110418320373460000017463820033410791575_">
				<use xlink:href="#SVGID_00000002380233898475039930000007618776993054635926_"  style="overflow:visible;"/>
			</clipPath>
			<g style="clip-path:url(#SVGID_00000163052110418320373460000017463820033410791575_);">
				
					<image style="overflow:visible;" width="1757" height="644" id="Laag_0_00000085945293217733913100000017741036329122378401_" xlink:href="567FE00FC74F951F.png"  transform="matrix(0.3196 -1.261671e-02 1.261671e-02 0.3196 73.8215 292.872)">
				</image>
			</g>
		</g>
	</g>
	<g>
		<defs>
			<rect id="SVGID_00000159441757503548505980000017980192109628033450_" x="0.8" y="45.9" width="565.3" height="565.1"/>
		</defs>
		<clipPath id="SVGID_00000038406448121596698230000002686906618078201769_">
			<use xlink:href="#SVGID_00000159441757503548505980000017980192109628033450_"  style="overflow:visible;"/>
		</clipPath>
		
			<g id="whale.psd_00000155107246659804860660000003916656301193862561_" style="clip-path:url(#SVGID_00000038406448121596698230000002686906618078201769_);">
			<g>
				<defs>
					<rect id="SVGID_00000000933944838124907350000007342099549316375719_" x="-141.4" y="7.8" width="465.1" height="326.7"/>
				</defs>
				<clipPath id="SVGID_00000159439201145439580880000008491915951830257053_">
					<use xlink:href="#SVGID_00000000933944838124907350000007342099549316375719_"  style="overflow:visible;"/>
				</clipPath>
				<g transform="matrix(1 0 0 1 0 0)" style="clip-path:url(#SVGID_00000159439201145439580880000008491915951830257053_);">
					
						<image style="overflow:visible;" width="751" height="342" id="Laag_0_00000023973111406595212740000002185694669281507721_" xlink:href="567FE00FC74F951A.png"  transform="matrix(-0.4689 0 0 0.5855 256.1767 95.6521)">
					</image>
				</g>
			</g>
		</g>
	</g>
</g>
</svg>
