<?xml version="1.0" encoding="UTF-8"?>
<svg id="Laag_1" data-name="Laag 1" xmlns="http://www.w3.org/2000/svg" viewBox="0 0 1368 334">
  <defs>
    <style>
      .cls-1 {
        stroke-width: 0px;
      }
    </style>
  </defs>
  <circle class="cls-1" cx="295" cy="124.5" r="11"/>
  <ellipse class="cls-1" cx="204" cy="87" rx="8" ry="8.5"/>
  <circle class="cls-1" cx="540.5" cy="97" r="9.5"/>
  <circle class="cls-1" cx="575.5" cy="71" r="7.5"/>
  <ellipse class="cls-1" cx="978" cy="141" rx="12" ry="14.5"/>
  <circle class="cls-1" cx="1005.5" cy="102" r="4.5"/>
  <path class="cls-1" d="m0,198v136h1368v-46.5c0-7.99-24.04-14.89-58.78-18.09-5.81-8.59-16.94-14.41-29.72-14.41-7.19,0-13.86,1.84-19.35,4.98-5.12-10.08-15.57-16.98-27.65-16.98-15.21,0-27.85,10.95-30.49,25.4-1.99-.89-4.19-1.4-6.51-1.4-5.8,0-10.86,3.09-13.67,7.71-.35-1.41-1.29-2.8-2.75-4.15,1.56-3.44,2.42-7.17,2.42-11.07,0-17.4-17.01-31.5-38-31.5-14.98,0-27.93,7.19-34.12,17.62.07-.7.12-1.41.12-2.12,0-8.55-5.34-16.03-13.33-20.14,1.16-2.38,1.83-5.04,1.83-7.86,0-9.94-8.06-18-18-18s-18,8.06-18,18c0,.75.06,1.49.15,2.22-5.22-3.9-11.67-6.22-18.65-6.22-4.9,0-9.54,1.14-13.67,3.16-4.15-14.47-18.84-25.16-36.33-25.16-2.06,0-4.08.15-6.05.44-.55-8.34-7.47-14.94-15.95-14.94s-16,7.16-16,16c0,.18.02.35.03.53-3.95-2.85-8.79-4.53-14.03-4.53-8.3,0-15.61,4.21-19.92,10.61-12.37-9.34-29.34-15.11-48.08-15.11-5.2,0-10.25.45-15.12,1.29-1.1-10.56-10.03-18.79-20.88-18.79-.3,0-.58.03-.87.04-7.61-22.8-32.76-39.54-62.63-39.54-31.5,0-57.76,18.62-63.72,43.33-8.87-5.21-20.08-8.33-32.28-8.33-7.74,0-15.07,1.26-21.67,3.5-5.71-15-47.68-26.88-100.34-28.35,0-.05,0-.1,0-.15,0-11.6-15-21-33.5-21-1.8,0-3.56.09-5.28.26-3.67-10.99-19.83-19.26-39.22-19.26-18.08,0-33.35,7.2-38.3,17.09-2.54-1.02-5.3-1.59-8.2-1.59-6.68,0-12.66,2.98-16.7,7.69-7.52-7.43-18.97-12.19-31.8-12.19s-23.99,4.63-31.51,11.89c.33-.91.51-1.88.51-2.89,0-4.97-4.25-9-9.5-9s-9.5,4.03-9.5,9,4.25,9,9.5,9c1.76,0,3.41-.46,4.83-1.26-3.38,4.8-5.33,10.34-5.33,16.26,0,.55.03,1.09.07,1.63-7.48.93-13.29,7.19-13.54,14.86-9.7.47-18.95,1.28-27.54,2.39,0-.13.01-.25.01-.38,0-9.66-10.3-17.5-23-17.5-5.97,0-11.4,1.73-15.49,4.56-5.23-4.01-13.15-6.56-22.01-6.56-3.54,0-6.92.42-10.05,1.17-.91-12.63-14.64-22.67-31.45-22.67s-31.5,10.75-31.5,24c0,3.69,1.09,7.18,3.04,10.3-2.67-.84-5.55-1.3-8.54-1.3-14.08,0-25.5,10.07-25.5,22.5,0,2.49.47,4.89,1.31,7.13-1.11.32-2.18.65-3.22.99-4.03-5.42-9.52-9.15-15.72-10.27.08-1.1.13-2.22.13-3.35,0-21.82-15.89-39.5-35.5-39.5-1.86,0-3.68.16-5.46.47-2.1-10.25-11.17-17.97-22.04-17.97-10.17,0-18.75,6.74-21.54,16-12.13.02-21.96,9.86-21.96,22,0,3.19.69,6.22,1.91,8.96-8.16,6.41-12.8,15.91-13.91,27.04q-.5,5-.5,14Z"/>
  <ellipse class="cls-1" cx="1032" cy="181.5" rx="12" ry="9"/>
  <ellipse class="cls-1" cx="1024.5" cy="147" rx="7" ry="8"/>
  <ellipse class="cls-1" cx="844" cy="126" rx="8.5" ry="9"/>
  <ellipse class="cls-1" cx="802.5" cy="96.5" rx="9" ry="9.5"/>
  <circle class="cls-1" cx="837" cy="90.5" r="6.5"/>
  <ellipse class="cls-1" cx="685.5" cy="133.5" rx="7" ry="7.5"/>
  <circle class="cls-1" cx="653" cy="118.5" r="5.5"/>
  <circle class="cls-1" cx="672" cy="106.5" r="6.5"/>
  <ellipse class="cls-1" cx="642" cy="84" rx="5.5" ry="6"/>
  <circle class="cls-1" cx="1196" cy="241.5" r="5.5"/>
  <circle class="cls-1" cx="1173" cy="220.5" r="6.5"/>
  <circle class="cls-1" cx="1196" cy="214.5" r="5.5"/>
  <circle class="cls-1" cx="140" cy="133.5" r="7.5"/>
  <circle class="cls-1" cx="151" cy="113.5" r="3.5"/>
  <circle class="cls-1" cx="165.5" cy="95" r="5"/>
  <circle class="cls-1" cx="130" cy="93.5" r="6.5"/>
  <circle class="cls-1" cx="147.5" cy="75" r="3"/>
  <circle class="cls-1" cx="577" cy="120.5" r="3.5"/>
  <circle class="cls-1" cx="72.5" cy="100" r="6"/>
  <circle class="cls-1" cx="26" cy="86.5" r="7.5"/>
  <circle class="cls-1" cx="46" cy="82.5" r="4.5"/>
  <circle class="cls-1" cx="22" cy="109.5" r="3.5"/>
  <circle class="cls-1" cx="65.5" cy="59" r="7"/>
  <circle class="cls-1" cx="781.5" cy="112" r="5"/>
  <circle class="cls-1" cx="611" cy="40.5" r="6.5"/>
  <circle class="cls-1" cx="148" cy="33.5" r="6.5"/>
  <circle class="cls-1" cx="101.5" cy="64" r="8"/>
  <circle class="cls-1" cx="95" cy="6.5" r="6.5"/>
  <circle class="cls-1" cx="46" cy="22.5" r="4.5"/>
</svg>