<?xml version="1.0" encoding="utf-8"?>
<!-- Generator: Adobe Illustrator 27.9.0, SVG Export Plug-In . SVG Version: 6.00 Build 0)  -->
<svg version="1.1" xmlns="http://www.w3.org/2000/svg" xmlns:xlink="http://www.w3.org/1999/xlink" x="0px" y="0px"
	 viewBox="0 0 595.3 841.9" style="enable-background:new 0 0 595.3 841.9;" xml:space="preserve">
<style type="text/css">
	.st0{fill:url(#SVGID_1_);}
	.st1{fill:#219BB7;}
	.st2{fill:url(#SVGID_00000075126971107107356150000012530878625963857301_);}
	.st3{fill:#1CCBE8;}
	.st4{fill:url(#SVGID_00000018959491910683554930000007666606313104425132_);}
	.st5{fill:#090526;}
	.st6{fill:#10162B;}
	.st7{fill:none;stroke:#1D1D1B;stroke-width:6;stroke-miterlimit:10;}
	.st8{fill:none;}
	.st9{fill:#1D1D1B;}
	.st10{font-family:'Baskerville';}
	.st11{font-size:43.994px;}
	.st12{font-size:58.6586px;}
	.st13{fill:#FCFCFC;}
	.st14{font-family:'BMHANNA11yrsoldOTF-KSCpc-EUC-H';}
	.st15{font-size:116.2532px;}
	.st16{font-family:'Baloo2-SemiBold';}
	.st17{font-size:24px;}
	.st18{fill:#FFFFFF;}
	.st19{font-family:'MyriadPro-Regular';}
	.st20{font-size:17.7677px;}
</style>
<g id="Laag_4">
	<linearGradient id="SVGID_1_" gradientUnits="userSpaceOnUse" x1="297.6378" y1="42.0334" x2="297.6378" y2="805.3503">
		<stop  offset="0" style="stop-color:#0BB1FF"/>
		<stop  offset="0.1099" style="stop-color:#288DE5"/>
		<stop  offset="0.3818" style="stop-color:#7034A4"/>
		<stop  offset="0.523" style="stop-color:#813D94"/>
		<stop  offset="1" style="stop-color:#ED7533"/>
	</linearGradient>
	<rect x="38.2" y="42" class="st0" width="518.9" height="763.3"/>
</g>
<g id="Laag_5">
	<path d="M503.6,336.2c-4.1,5-8.2,9.8-14.8,11.9c-11.9,3.8-23.6,8.3-35.4,12.7c-1.3,0.5-4.1,0.4-3,3c0.8,2,1.3,4.5,4.9,3.6
		c8.9-2.1,17.9-1.6,26.7,1.1c1.4,0.4,3.2,0.3,4.6-0.2c15.6-5.7,31.2-11.4,46.8-17.3c1-0.4,2.1-2,2.1-3.1c0.1-6.3,0.1-12.5-0.1-18.8
		c-0.1-2.2,0.5-3.5,3.3-3.7c1.6,8.9,3.3,17.7,5,26.9c2.9-1,5.4-1.8,8-2.7c0.2,0.3,0.3,0.6,0.5,0.9c-2.5,1.1-5,2.2-7.9,3.4
		c2.7,3.6,5.4,6.9,7.8,10.4c0.6,0.9,0.7,2.3,1,3.4c-1-0.5-2.2-0.8-3-1.5c-2.7-2.6-5.4-5.3-7.9-8c-1.3-1.4-2.3-1.7-4.1-0.8
		c-13.6,7.5-27.2,14.8-40.8,22.4c-1.4,0.8-2.6,2.4-3.3,3.9c-1.2,2.6-2,5.3-2.8,8.1c-1.5,4.9-3,9.9-8.1,12.7c2.2,1.5,3.9,3,5.9,4.1
		c0.8,0.4,2.1,0.2,3-0.1c2.3-0.8,4.4-1.9,7-2.2c-7,5.3-15.3,8.3-22.7,12.7c0.2,0.4,0.4,0.8,0.6,1.3c4.4-2.1,8.9-4.2,13.3-6.3
		c0.2,0.4,0.4,0.9,0.7,1.3c-0.9,0.6-1.8,1.4-2.7,1.9c-12.3,6.2-24.7,12.3-37,18.4c-3.8,1.9-7.3,1-10.7-2.9c3.5-0.4,6.6,3.7,9.2,0.8
		c-0.5-4.2-1-8.1-1.5-12.1c-0.5,0.2-1.4,0.4-2.3,0.8c-8.5,3.4-16.4,2.3-21.6-3.2c-4.5-4.8-5.8-14.5-1.8-21.6
		c3.1-5.4,7.5-10.1,11.3-15.2c0.8-1,1.3-2.2,2.1-3.3c1.4-1.9,2.9-3.7,4.5-5.4c1-1,2.5-1.6,3.7-2.3c-0.7-4.6-2.1-6-8.3-4
		c-14,4.5-27.7,9.7-41.6,14.7c-8.7,3.1-17.4,6.2-26.1,9.3c-0.7,0.3-1.5,0.4-2.9,0.7c1.5-3.5,2.7-6.7,4.3-9.6c0.5-0.9,2-1.4,3.1-1.7
		c20.4-5.3,40.8-10.4,61.2-15.7c2.4-0.6,4.5-1.9,6.8-3c2-0.9,3.9-2.5,5.9-2.6c8.3-0.5,15.1-5,22.4-8
		C480.3,346.5,491.9,341.2,503.6,336.2z M473.2,422.3c-0.1-0.5-0.3-1-0.4-1.4c-0.7,0.1-1.5,0.1-2.2,0.3c-2.4,0.9-4.8,2.1-7.3,2.9
		c-3.3,1.1-6.8-0.3-8.9-4c6.3,3.3,11.4,1.8,17.4-2c-2.9-1.2-5-2.8-7-2.7c-2.7,0.1-5.5,1.3-8.1,2.4c-6.1,2.7-7.7,8-4,14.6
		C459.4,429,466.3,425.6,473.2,422.3z M473.5,380.4c4,7,1.7,12.8-2.5,18.7c10.7-7,13.5-17.8,7.2-25.3c0,2.4,0,4.8-0.1,7.4
		C476.6,380.9,475.5,380.7,473.5,380.4z M456.3,380.8c-9.4,1.4-9.4,1.4-9.1,10c0,0.3,0.2,0.6,0.3,1c3.5-0.9,6.8-1.8,10.5-2.8
		C457.5,386.2,456.9,383.6,456.3,380.8z M529.9,355.2c-0.1-0.2-0.1-0.4-0.2-0.5c-14.5,5.4-29,10.9-43.2,16.2
		c0.7,3.8,1.2,7.1,1.8,10.5c0.2,0,0.4,0.1,0.6,0.1c0.1-2.8,0.2-5.6,0.3-8.8c6.3-2.7,13.2-5.6,20.1-8.6
		C516.2,361.1,523,358.1,529.9,355.2z M476.2,400.2c-0.2-0.3-0.4-0.7-0.6-1c-11.1,7.7-23.5,12.4-36.4,15.8
		c-4.7,1.3-9.2,1.8-12.9-2.6c2.3,4.8,5.8,6.5,11.7,4.7c8-2.4,16-5.1,23.7-8.4C466.8,406.5,471.4,403.1,476.2,400.2z M458.2,391.5
		c-3.1,0.6-5.9,1.1-8.6,1.9c-0.8,0.2-1.9,1.4-2,2.2c-0.4,2.5-0.3,5.1-0.5,8c2.8-1.1,5.2-2.5,7.8-3.1c2.7-0.6,3.4-2.3,3.4-4.6
		C458.5,394.5,458.3,393,458.2,391.5z M472.2,385.1c-0.8-2.6-1.4-4.9-2.1-7.3c-3.9,0.7-7.5,1.3-11.1,2c0.9,3.1,1.6,5.7,2.4,8.6
		C464.8,387.3,468.2,386.3,472.2,385.1z M475.8,416.3c2-1,3.7-1.9,5.4-2.7c1.8-0.9,3.5-1.8,5.4-2.8c-2.7-3.2-6.3-4.5-8.5-3.3
		C475.1,409.1,474.4,411.7,475.8,416.3z M443.4,383.3c-0.2-0.1-0.4-0.1-0.6-0.2c-0.5,2.8-1.1,5.5-1.3,8.3c-0.3,3.5-1.8,5.5-5.3,6.4
		c-4.5,1.2-8.4,3.7-11,6.6c4.6-1.8,9.9-3.7,15-6.1c1.3-0.6,2.6-2.5,2.8-4C443.5,390.8,443.3,387.1,443.4,383.3z M481.8,400.1
		c5.9-3.6,6.5-11.6,10.6-17.6c-2.2,0.9-4.6,2-5.4,3.8C484.8,390.9,483.3,395.9,481.8,400.1z M458,377.9c3.8-0.7,7.1-1.4,11-2.1
		c-3.9-2.4-7.2-1.5-10.5-0.6C458.1,375.3,458.1,376.8,458,377.9z M438.2,379.4c5.4-2.5,10.8-5,16.5-7.5
		C448.4,373.3,442.7,374.9,438.2,379.4z M446.9,380.9c3-0.9,5.4-1.6,8.4-2.4C451,375.9,449,376.5,446.9,380.9z M473.1,416.6
		c0-2.1-0.1-3.9-0.1-6.2c-1.9,1-3.4,1.8-5.2,2.8C469.8,414.4,471.3,415.4,473.1,416.6z M449,363.2c-3.3,0.9-2.1,2.8-1.3,4.2
		c0.5,0.7,1.8,0.9,2.8,1.3c0.1-0.3,0.3-0.7,0.4-1C450.3,366.3,449.7,364.9,449,363.2z"/>
</g>
<g id="Laag_3">
	<rect x="38.2" y="592" class="st1" width="516.9" height="155.6"/>
	
		<linearGradient id="SVGID_00000119797315747691175320000007958285744669078406_" gradientUnits="userSpaceOnUse" x1="242.1492" y1="610.0315" x2="342.3431" y2="610.0315" gradientTransform="matrix(0 1 -1 0 907.6693 255.584)">
		<stop  offset="0" style="stop-color:#FFEF26"/>
		<stop  offset="1.783161e-02" style="stop-color:#FFEA21"/>
		<stop  offset="0.102" style="stop-color:#FED70F"/>
		<stop  offset="0.1886" style="stop-color:#FDCC04"/>
		<stop  offset="0.2809" style="stop-color:#FDC800"/>
		<stop  offset="1" style="stop-color:#F18F34"/>
	</linearGradient>
	<path style="fill:url(#SVGID_00000119797315747691175320000007958285744669078406_);" d="M197.4,597.9
		c0-55.3,44.9-100.2,100.2-100.2s100.2,44.9,100.2,100.2"/>
	<path class="st3" d="M154.8,592c0,0-90.8,29.1-56.7,30.6s83.7,0,83.7,0s36,3,0,17.1c-36,14.1,41.4,16.3,41.4,16.3
		s-45.5,26.5,7.1,12c35.4-9.8,0.2,12.2,3.6,15.2c8.9,7.8,49.5,5,51.3-6.9c1.8-12,2,10.2-21.8,15s129.7,20.7,129.7,20.7
		s56.8-26.1,24.3-32s14.4-16.4,14.4-16.4s72-17.1,37.8-20.8s-32.4-24.6-7.2-23.8c25.2,0.7,79-11.8,32.4-19.4
		c-46.6-7.5-46.6-7.5-46.6-7.5H154.8z"/>
	
		<linearGradient id="SVGID_00000076604955305142572890000007530866721746774663_" gradientUnits="userSpaceOnUse" x1="297.2657" y1="711.8979" x2="297.2657" y2="591.9579">
		<stop  offset="0" style="stop-color:#FEDE14"/>
		<stop  offset="1" style="stop-color:#ED7533"/>
	</linearGradient>
	<path style="fill:url(#SVGID_00000076604955305142572890000007530866721746774663_);" d="M200.2,592c0,0,38.9,5.5,14,22.2
		c-10.4,7,25.2,7.8,25.2,7.8s23.8,3.5,10.6,17.7c-7.8,8.4,6,12.8,12.9,14.8c4.8,1.4,15.6,2.7,16.4,7.6c0.9,5.1-10.8,15-3.4,24
		c32.4,39.3,8.3,12,9.6,14.9c3.3,7.8,1.7-12.8,2.4-24.8c0.7-12,0.7,10.2-8,15s47.4,20.7,47.4,20.7s20.8-26.1,8.9-32
		s5.3-16.4,5.3-16.4s26.3-17.1,13.8-20.8c-12.5-3.7-11.8-24.6-2.6-23.8c9.2,0.7,43.9-9.7,26.9-17.2c-17-7.5,14.8-9.6,14.8-9.6H200.2
		z"/>
	<path class="st5" d="M38.2,805.4V676.7c0,0,48.3,50.6,120.3,39.2c72-11.4,126.2-44.2,206-39.2c79.8,5,153.9,51.3,153.9,51.3
		s38.7,26.4,38.7-7.8s0,85.2,0,85.2H38.2z"/>
	<path class="st6" d="M41.2,679.5c0,0,42.2,35.7,82.6,37.3s68.1-7.9,68.1-7.9s84.1,17.7,8.3,31.8s-87.8,25.4-87.8,25.4
		s-45.5,20.5-59.9,4.6s-11.3-14.6-11.3-14.6V679.5z"/>
	<path class="st6" d="M554.1,732.7c0,0-5.9,10.1-24.8,1.3c-18.9-8.8-48.7-29.2-68.9-34.3c-16.6-4.2-14,11.4-12.6,17
		c0.3,1.2,1,2.2,2.1,2.9c5.8,3.9,25.9,18.5,11.1,25.9c-17.1,8.5-6.5,35.2,23.2,30.4c29.7-4.8,46.5-13,63.9-7.2c0,0,4.9,1,5.9,3.8
		C555.1,775.3,554.1,732.7,554.1,732.7z"/>
</g>
<g id="Laag_2">
	<rect x="38.2" y="42" class="st7" width="518.9" height="763.3"/>
</g>
<g id="Laag_1">
	<rect x="264.3" y="116.4" class="st8" width="68.6" height="38.2"/>
	<text transform="matrix(1 0 0 1 264.2595 153.1543)" class="st9 st10 st11">Bay</text>
	<g>
		<path class="st9" d="M319.1,32.6l-1.1,3.6l0,0c0,0,0,0,0,0c-0.2,0.5-1.2,0.7-1.7,0.5l0.3-2l0.5-4.1l0,0c0.8-6.6,2-16-0.2-19
			c-1.2-1.6-13.5,0-13.5,0l0,0c-2.5,0.2-4.6,0.8-6.2,1.6c-1.6-0.8-3.8-1.4-6.3-1.6c0,0-12.2-1.5-13.5,0c-2.1,2.5-1.2,12.3-0.4,19.1
			l0.5,4.1l0.2,2c-0.5,0.2-1.2,0-1.4-0.6c0,0,0,0,0,0l0,0l-1.1-3.7c-13.3,1.2-22.3,3.7-22.3,8.6c0,7.3,20,16.9,44.8,16.9
			c24.7,0,44.8-8.8,44.8-16C342.4,37,333,34,319.1,32.6z"/>
		<path class="st9" d="M297,73.9c1.6-2.4,2.5-6.7,0.1-9.2c-1.6-1.7-4.4-2.4-6.5-1.6c-2.7,0.9-2.3,3.3-5.3,5.1
			c-2.5,1.5-6.1,1.8-8.2,0.2c-2-1.5-2.1-4.4-2.3-4.3c-0.2,0.1-0.2,3.6,1.7,7c2.1,3.5,6.2,6.5,11.1,6.7
			C288.8,77.7,294.3,77.9,297,73.9z"/>
		<path class="st9" d="M297.7,73.4c-1.5-2.5-2-6.8,0.6-9.2c1.7-1.6,4.5-2.1,6.6-1.2c2.6,1.1,2.1,3.5,5,5.5c2.4,1.6,5.9,2.2,8.1,0.8
			c2.1-1.4,2.4-4.2,2.6-4.2c0.2,0.1,0,3.7-2.2,6.9c-2.3,3.4-6.6,6-11.5,5.9C305.6,77.8,300.1,77.6,297.7,73.4z"/>
	</g>
	<rect x="222.7" y="67.5" class="st8" width="151.6" height="58.7"/>
	<text transform="matrix(1 0 0 1 222.713 116.4413)" class="st9 st10 st12">Secret</text>
	<path class="st6" d="M453.7,564c0.8-1.1,1.6-2.1,3.6-4.8c-4.6,2.2-7.4,3.6-10.9,5.3c0.6-2,1.1-3.4,1.6-4.9
		c-0.5-0.6-0.9-1.2-1.4-1.8c-2.5,2.7-5,5.4-7.6,8.1c-0.5-0.5-1-1.1-1.5-1.6c0.7-1.2,1.2-2.5,2.1-3.5c16.9-18.8,44.9-22.6,67-9.2
		c7.5,4.5,7.5,4.5,11.1-3.6c10.1-22.6,32.2-35.1,55.8-31.8c2.2,0.3,4.3,1,6.4,3c-3.4,0.3-6.8,0.5-11.1,0.9c1.7,1.4,2.6,2.2,4.4,3.6
		c-3.2,0.3-5.6,0.5-8.2,0.7c0.8,0.9,1.5,1.7,2.4,2.8c-5.7,1.1-11.2,2.1-17.3,3.2c1.3,1.6,2.2,2.6,3.1,3.7c-1.9,0.3-3.7,0.5-5.5,0.8
		c0.4,0.5,0.8,1,1.2,1.5c-1.5,1.5-2.8,3.3-4.4,4.6c-7,5.3-14.1,10.5-20.9,16.7c16.6,2.8,30.3,9.2,40,22.7c6.4,9,10,18.9,8.8,30.6
		c-1.4-3.4-2.8-6.9-4.4-11c-0.8,2.1-1.4,3.7-2.2,5.7c-1.5-3.2-2.6-5.8-4.3-9.4c-0.8,1.8-1.3,2.8-2.3,5
		c-10.9-14.9-24.8-25.5-41.5-34.8c8.9,57.6,10.9,113.7-6.7,169.2c-4.8-0.8-8.9-1.6-14-2.5c17.4-52.9,23.6-106.7,15.9-162.7
		c-6.4,10.1-12.8,20.2-19.6,30.9c-0.7-0.6-1.4-1.2-3-2.6c-0.5,6.3-0.9,12-1.3,18c-0.7-0.5-1.7-1.1-3.2-2.1c0.2,2.5,0.3,4.8,0.5,7.8
		c-1.7-1.3-2.7-2-4.2-3.1c0.2,4,0.4,7.7,0.6,12.1c-14.5-18.4-3.1-50.4,23.7-68.6c-8.8-2.4-11.1-1.9-16.5-1.5
		c-5.6,0.4-11.5-1.8-17-1.2c-6.3,0.7-12.3,3.4-18.4,5.2C454.1,565,453.9,564.5,453.7,564z"/>
	<path class="st6" d="M51.9,732.4c4.9,0,8,0,11.8,0c0.2-68.9,5.8-136.8,27.9-202.2c0.9-0.1,1.9-0.3,2.8-0.4
		c1.7,6.7,2.5,13.9,5.4,20.1c2,4.3-1.5,11.3,5.9,13c-1.2,6.3,5.6,12.5,0,18.8c-0.8,0.8-0.8,2.3-1.4,3.9c1.8-0.5,2.9-0.8,4.6-1.2
		c-1,2.7-1.9,4.9-3,7.8c1.7-0.4,3-0.7,5-1.2c-1.3,3.8-2.4,7.3-3.5,10.7c15.2-16,16.1-35,10.8-56.8c5.7,4.6,9.6,7.8,13.5,11
		c0.1-0.2,0.7-1.3,1.7-3.2c2.4,6.2,4.5,11.7,6.7,17.4c0.8-0.5,1.8-1.1,3.1-1.9c0.3,2.6,0.5,5,0.7,7.4c0.4,0.4,0.9,0.8,1.3,1.2
		c0.7-1.6,1.3-3.2,2.5-6c1.3,5.5,2.1,9.1,3.1,13.2c8.8-19.1-5.8-43.6-37-64.4c17.1-0.2,34.2-1.1,51.2,6.8c-0.6-2.8-0.8-4.2-1.3-6.4
		c3.4,2,5.9,3.5,9,5.4c-0.3-2.1-0.6-3.7-1-6.2c3.9,2.9,7,5.2,11.5,8.5c-13-27.3-46.7-32.8-83.3-14.9c2.5-20.5-2.2-38.4-17.4-52.7
		c-9.1-8.6-20.1-13.8-30.5-13.6c4.2,2.5,7.4,4.3,11.2,6.5c-2,0.7-3.5,1.1-5.7,1.9c3,1.6,5.4,3,8.3,4.6c-1.7,0.7-2.8,1.2-4.5,1.8
		c1.7,1.1,3,2,4.3,2.7c5.9,3.2,3.9,4.7,7.9,9.9c2.9,3.8,1.4,7.5,3.6,10.6c3.5,4.9,6.7,10.1,9.7,15.3c0.9,1.6,0.7,3.8,1.3,7.3
		c-17.3-12.2-35.2-16.8-54.6-10.7c-9.1,2.8-17.3,7.2-22.7,16c3.2-1.6,6.4-3.2,10.4-5.2c-0.4,2.1-0.7,3.4-1.1,5.2
		c3.3-1.2,6.3-2.3,10.6-3.8c-1.4,2.2-2,3.2-3.8,5.9c10.2-1.3,19.2-2.4,28.1-3.5c0.4,0.6,0.8,1.2,1.2,1.8c-2.2,2-4.1,4.6-6.7,5.8
		c-13.5,6.7-23.3,16.8-29,30.7c-0.6,1.4-0.7,2.9,0.3,5c2.2-3.1,4.4-6.2,7.6-10.7c0,3.2,0,4.8,0,7.4c2.9-3.2,5-5.6,8.2-9.2
		c-0.2,2.7-0.3,4-0.6,6.8C52.5,537,69.6,529,89.2,525.3C65.7,592.6,51.7,660.8,51.9,732.4z"/>
</g>
<g id="Laag_6">
	<rect y="175.8" class="st8" width="595.3" height="103.9"/>
	<text transform="matrix(1 0 0 1 84.1989 268.7899)" class="st13 st14 st15">COMING</text>
	<rect x="0.9" y="274.7" class="st8" width="595.3" height="103.9"/>
	<text transform="matrix(1 0 0 1 144.5006 367.6966)" class="st13 st14 st15">SOON</text>
	<text transform="matrix(1 0 0 1 246.4678 544.5209)"><tspan x="0" y="0" class="st16 st17">28 august</tspan><tspan x="24.9" y="28.8" class="st16 st17">17:00</tspan></text>
	<text transform="matrix(1 0 0 1 52.1187 786.5869)" class="st18 st19 st20">Avenida del Sol 5, 29630</text>
</g>
</svg>
